<svg width="794" height="112" viewBox="0 0 794 112" fill="none" xmlns="http://www.w3.org/2000/svg">
<path d="M713.245 110.51H684.926L721.709 1.49121H756.789L793.572 110.51H765.253L739.648 28.9589H738.797L713.245 110.51ZM709.466 67.6053H768.66V87.6205H709.466V67.6053Z" fill="white"/>
<path d="M673.119 1.49121V110.51H646.77V1.49121H673.119Z" fill="white"/>
<path d="M508.43 1.49121H541.061L568.741 68.9893H570.019L597.7 1.49121H630.331V110.51H604.673V43.5444H603.768L577.578 109.818H561.183L534.992 43.1718H534.087V110.51H508.43V1.49121Z" fill="white"/>
<path d="M411.246 13.2022V1.49121H493.01V13.2022H458.729V110.51H445.527V13.2022H411.246Z" fill="white"/>
<path d="M399.552 56C399.552 67.4981 397.476 77.4347 393.324 85.8099C389.172 94.185 383.476 100.644 376.236 105.186C368.997 109.729 360.728 112 351.43 112C342.132 112 333.864 109.729 326.624 105.186C319.385 100.644 313.689 94.185 309.537 85.8099C305.385 77.4347 303.309 67.4981 303.309 56C303.309 44.5019 305.385 34.5653 309.537 26.1901C313.689 17.815 319.385 11.3562 326.624 6.81369C333.864 2.27123 342.132 0 351.43 0C360.728 0 368.997 2.27123 376.236 6.81369C383.476 11.3562 389.172 17.815 393.324 26.1901C397.476 34.5653 399.552 44.5019 399.552 56ZM386.776 56C386.776 46.5602 385.197 38.5932 382.039 32.0989C378.916 25.6046 374.675 20.6895 369.316 17.3536C363.993 14.0177 358.031 12.3498 351.43 12.3498C344.829 12.3498 338.85 14.0177 333.491 17.3536C328.168 20.6895 323.927 25.6046 320.769 32.0989C317.646 38.5932 316.084 46.5602 316.084 56C316.084 65.4398 317.646 73.4068 320.769 79.9011C323.927 86.3954 328.168 91.3105 333.491 94.6464C338.85 97.9823 344.829 99.6502 351.43 99.6502C358.031 99.6502 363.993 97.9823 369.316 94.6464C374.675 91.3105 378.916 86.3954 382.039 79.9011C385.197 73.4068 386.776 65.4398 386.776 56Z" fill="white"/>
<path d="M210.062 110.51V1.49121H248.177C255.771 1.49121 262.035 2.80427 266.967 5.43038C271.9 8.021 275.573 11.5166 277.986 15.9171C280.4 20.2821 281.606 25.1262 281.606 30.4494C281.606 35.1338 280.772 39.002 279.104 42.0539C277.472 45.1059 275.307 47.5191 272.61 49.2935C269.948 51.0679 267.056 52.3809 263.933 53.2327V54.2973C267.269 54.5102 270.623 55.6813 273.994 57.8106C277.365 59.9399 280.187 62.9918 282.458 66.9665C284.729 70.9411 285.865 75.803 285.865 81.5521C285.865 87.0172 284.623 91.9323 282.139 96.2973C279.654 100.662 275.733 104.122 270.374 106.678C265.016 109.233 258.042 110.51 249.454 110.51H210.062ZM223.264 98.7992H249.454C258.078 98.7992 264.199 97.1313 267.819 93.7954C271.474 90.424 273.302 86.3429 273.302 81.5521C273.302 77.8613 272.362 74.4545 270.481 71.3315C268.6 68.1731 265.921 65.6534 262.443 63.7726C258.965 61.8562 254.848 60.8981 250.093 60.8981H223.264V98.7992ZM223.264 49.4H247.751C251.725 49.4 255.31 48.6192 258.504 47.0578C261.733 45.4963 264.288 43.296 266.169 40.457C268.085 37.618 269.044 34.2821 269.044 30.4494C269.044 25.6585 267.376 21.5951 264.04 18.2593C260.704 14.8879 255.416 13.2022 248.177 13.2022H223.264V49.4Z" fill="white"/>
<path d="M187.868 56C187.868 67.4981 185.792 77.4347 181.64 85.8099C177.488 94.185 171.792 100.644 164.553 105.186C157.313 109.729 149.045 112 139.747 112C130.449 112 122.18 109.729 114.941 105.186C107.701 100.644 102.005 94.185 97.8531 85.8099C93.7011 77.4347 91.625 67.4981 91.625 56C91.625 44.5019 93.7011 34.5653 97.8531 26.1901C102.005 17.815 107.701 11.3562 114.941 6.81369C122.18 2.27123 130.449 0 139.747 0C149.045 0 157.313 2.27123 164.553 6.81369C171.792 11.3562 177.488 17.815 181.64 26.1901C185.792 34.5653 187.868 44.5019 187.868 56ZM175.093 56C175.093 46.5602 173.513 38.5932 170.355 32.0989C167.232 25.6046 162.991 20.6895 157.633 17.3536C152.309 14.0177 146.347 12.3498 139.747 12.3498C133.146 12.3498 127.166 14.0177 121.808 17.3536C116.484 20.6895 112.244 25.6046 109.085 32.0989C105.962 38.5932 104.401 46.5602 104.401 56C104.401 65.4398 105.962 73.4068 109.085 79.9011C112.244 86.3954 116.484 91.3105 121.808 94.6464C127.166 97.9823 133.146 99.6502 139.747 99.6502C146.347 99.6502 152.309 97.9823 157.633 94.6464C162.991 91.3105 167.232 86.3954 170.355 79.9011C173.513 73.4068 175.093 65.4398 175.093 56Z" fill="white"/>
<path d="M0 110.51V1.49121H36.8365C45.3536 1.49121 52.3447 2.94622 57.8099 5.85623C63.275 8.73075 67.3207 12.6877 69.9468 17.727C72.5729 22.7662 73.8859 28.4976 73.8859 34.9209C73.8859 41.3442 72.5729 47.04 69.9468 52.0083C67.3207 56.9766 63.2928 60.8803 57.8631 63.7193C52.4335 66.5229 45.4956 67.9247 37.0494 67.9247H7.23954V56.0007H36.6236C42.4436 56.0007 47.128 55.149 50.6768 53.4456C54.2611 51.7422 56.8517 49.329 58.4487 46.206C60.0811 43.0476 60.8973 39.2859 60.8973 34.9209C60.8973 30.5559 60.0811 26.7409 58.4487 23.476C56.8162 20.2111 54.2079 17.6915 50.6236 15.9171C47.0393 14.1072 42.3017 13.2022 36.4106 13.2022H13.2015V110.51H0ZM51.3156 61.5368L78.1445 110.51H62.8137L36.4106 61.5368H51.3156Z" fill="white"/>
</svg>
