<svg width="1220" height="946" viewBox="0 0 1220 946" fill="none" xmlns="http://www.w3.org/2000/svg">
<path fill-rule="evenodd" clip-rule="evenodd" d="M611.481 478.342C611.481 557.876 547.006 622.351 467.472 622.351C387.938 622.351 323.463 557.876 323.463 478.342C323.463 398.808 387.938 334.333 467.472 334.333C547.006 334.333 611.481 398.808 611.481 478.342ZM467.472 627.946C550.096 627.946 617.076 560.966 617.076 478.342C617.076 395.718 550.096 328.737 467.472 328.737C384.848 328.737 317.867 395.718 317.867 478.342C317.867 560.966 384.848 627.946 467.472 627.946Z" fill="white"/>
<path fill-rule="evenodd" clip-rule="evenodd" d="M694.52 478.345C694.52 574.367 616.678 652.209 520.656 652.209C424.634 652.209 346.792 574.367 346.792 478.345C346.792 382.322 424.634 304.481 520.656 304.481C616.678 304.481 694.52 382.322 694.52 478.345ZM520.656 655.939C618.739 655.939 698.25 576.427 698.25 478.345C698.25 380.262 618.739 300.75 520.656 300.75C422.573 300.75 343.062 380.262 343.062 478.345C343.062 576.427 422.573 655.939 520.656 655.939Z" fill="white"/>
<path fill-rule="evenodd" clip-rule="evenodd" d="M776.631 478.348C776.631 590.343 685.841 681.134 573.845 681.134C461.849 681.134 371.059 590.343 371.059 478.348C371.059 366.352 461.849 275.561 573.845 275.561C685.841 275.561 776.631 366.352 776.631 478.348ZM573.845 684.864C687.901 684.864 780.362 592.404 780.362 478.348C780.362 364.292 687.901 271.831 573.845 271.831C459.789 271.831 367.328 364.292 367.328 478.348C367.328 592.404 459.789 684.864 573.845 684.864Z" fill="white"/>
<path fill-rule="evenodd" clip-rule="evenodd" d="M859.212 478.343C859.212 606.57 755.264 710.518 627.037 710.518C498.811 710.518 394.862 606.57 394.862 478.343C394.862 350.117 498.811 246.168 627.037 246.168C755.264 246.168 859.212 350.117 859.212 478.343ZM627.037 713.316C756.809 713.316 862.01 608.115 862.01 478.343C862.01 348.571 756.809 243.37 627.037 243.37C497.265 243.37 392.065 348.571 392.065 478.343C392.065 608.115 497.265 713.316 627.037 713.316Z" fill="white"/>
<path fill-rule="evenodd" clip-rule="evenodd" d="M941.356 478.342C941.356 622.56 824.445 739.471 680.227 739.471C536.009 739.471 419.098 622.56 419.098 478.342C419.098 334.124 536.009 217.213 680.227 217.213C824.445 217.213 941.356 334.124 941.356 478.342ZM680.227 742.205C825.955 742.205 944.09 624.069 944.09 478.342C944.09 332.614 825.955 214.479 680.227 214.479C534.5 214.479 416.364 332.614 416.364 478.342C416.364 624.069 534.5 742.205 680.227 742.205Z" fill="white"/>
<path fill-rule="evenodd" clip-rule="evenodd" d="M1023.47 478.345C1023.47 638.536 893.607 768.397 733.416 768.397C573.225 768.397 443.364 638.536 443.364 478.345C443.364 318.154 573.225 188.293 733.416 188.293C893.607 188.293 1023.47 318.154 1023.47 478.345ZM733.416 771.13C895.117 771.13 1026.2 640.046 1026.2 478.345C1026.2 316.644 895.117 185.56 733.416 185.56C571.715 185.56 440.631 316.644 440.631 478.345C440.631 640.046 571.715 771.13 733.416 771.13Z" fill="white"/>
<path fill-rule="evenodd" clip-rule="evenodd" d="M1105.7 478.342C1105.7 654.579 962.833 797.448 786.595 797.448C610.357 797.448 467.489 654.579 467.489 478.342C467.489 302.104 610.357 159.235 786.595 159.235C962.833 159.235 1105.7 302.104 1105.7 478.342ZM786.595 799.917C964.196 799.917 1108.17 655.943 1108.17 478.342C1108.17 300.741 964.196 156.767 786.595 156.767C608.994 156.767 465.02 300.741 465.02 478.342C465.02 655.943 608.994 799.917 786.595 799.917Z" fill="white"/>
<path fill-rule="evenodd" clip-rule="evenodd" d="M1187.81 478.345C1187.81 670.556 1032 826.374 839.784 826.374C647.573 826.374 491.755 670.556 491.755 478.345C491.755 286.134 647.573 130.316 839.784 130.316C1032 130.316 1187.81 286.134 1187.81 478.345ZM839.784 828.842C1033.36 828.842 1190.28 671.919 1190.28 478.345C1190.28 284.77 1033.36 127.847 839.784 127.847C646.21 127.847 489.286 284.77 489.286 478.345C489.286 671.919 646.21 828.842 839.784 828.842Z" fill="white"/>
<path fill-rule="evenodd" clip-rule="evenodd" d="M1270.06 478.343C1270.06 686.605 1101.23 855.435 892.972 855.435C684.709 855.435 515.879 686.605 515.879 478.343C515.879 270.081 684.709 101.251 892.972 101.251C1101.23 101.251 1270.06 270.081 1270.06 478.343ZM892.972 857.622C1102.44 857.622 1272.25 687.813 1272.25 478.343C1272.25 268.873 1102.44 99.0643 892.972 99.0643C683.502 99.0643 513.693 268.873 513.693 478.343C513.693 687.813 683.502 857.622 892.972 857.622Z" fill="white"/>
<path fill-rule="evenodd" clip-rule="evenodd" d="M1352.33 478.346C1352.33 702.666 1170.48 884.513 946.159 884.513C721.839 884.513 539.991 702.666 539.991 478.346C539.991 254.026 721.839 72.1781 946.159 72.1781C1170.48 72.1781 1352.33 254.026 1352.33 478.346ZM946.159 886.394C1171.52 886.394 1354.21 703.705 1354.21 478.346C1354.21 252.987 1171.52 70.2974 946.159 70.2974C720.8 70.2974 538.111 252.987 538.111 478.346C538.111 703.705 720.8 886.394 946.159 886.394Z" fill="white"/>
<path fill-rule="evenodd" clip-rule="evenodd" d="M1434.63 478.341C1434.63 718.739 1239.75 913.62 999.349 913.62C758.952 913.62 564.071 718.739 564.071 478.341C564.071 237.943 758.952 43.0619 999.349 43.0619C1239.75 43.0619 1434.63 237.943 1434.63 478.341ZM999.349 915.122C1240.58 915.122 1436.13 719.569 1436.13 478.341C1436.13 237.113 1240.58 41.5591 999.349 41.5591C758.122 41.5591 562.568 237.113 562.568 478.341C562.568 719.569 758.122 915.122 999.349 915.122Z" fill="white"/>
<path fill-rule="evenodd" clip-rule="evenodd" d="M1517.01 478.346C1517.01 734.863 1309.06 942.812 1052.54 942.812C796.022 942.812 588.074 734.863 588.074 478.346C588.074 221.829 796.022 13.8802 1052.54 13.8802C1309.06 13.8802 1517.01 221.829 1517.01 478.346ZM1052.54 943.785C1309.59 943.785 1517.98 735.401 1517.98 478.346C1517.98 221.291 1309.59 12.9069 1052.54 12.9069C795.484 12.9069 587.1 221.291 587.1 478.346C587.1 735.401 795.484 943.785 1052.54 943.785Z" fill="white"/>
<path fill-rule="evenodd" clip-rule="evenodd" d="M939.785 472.691C939.785 730.66 730.66 939.786 472.691 939.786C214.721 939.786 5.59552 730.66 5.59552 472.691C5.59552 214.721 214.721 5.59564 472.691 5.59564C730.66 5.59564 939.785 214.721 939.785 472.691ZM472.691 945.381C733.75 945.381 945.381 733.75 945.381 472.691C945.381 211.631 733.75 0 472.691 0C211.631 0 -0.00012207 211.631 -0.00012207 472.691C-0.00012207 733.75 211.631 945.381 472.691 945.381Z" fill="white"/>
</svg>
