<svg width="581" height="290" viewBox="0 0 581 290" fill="none" xmlns="http://www.w3.org/2000/svg">
<path fill-rule="evenodd" clip-rule="evenodd" d="M0.722263 144.941C0.722263 224.78 65.4444 289.502 145.283 289.502C225.122 289.502 289.844 224.78 289.844 144.941C289.844 65.1025 225.122 0.380432 145.283 0.380432C65.4444 0.380432 0.722263 65.1025 0.722263 144.941ZM145.283 289.883C65.2342 289.883 0.341797 224.99 0.341797 144.941C0.341797 64.8924 65.2342 -3.05176e-05 145.283 -3.05176e-05C225.332 -3.05176e-05 290.224 64.8924 290.224 144.941C290.224 224.99 225.332 289.883 145.283 289.883Z" fill="white"/>
<path fill-rule="evenodd" clip-rule="evenodd" d="M0.823723 144.942C0.823723 213.854 65.4579 269.787 145.281 269.787C225.104 269.787 289.739 213.854 289.739 144.942C289.739 76.0308 225.104 20.0971 145.281 20.0971C65.4579 20.0971 0.823723 76.0308 0.823723 144.942ZM145.281 270.375C65.2167 270.375 0.236328 214.255 0.236328 144.942C0.236328 75.6291 65.2167 19.5097 145.281 19.5097C225.346 19.5097 290.326 75.6291 290.326 144.942C290.326 214.255 225.346 270.375 145.281 270.375Z" fill="white"/>
<path fill-rule="evenodd" clip-rule="evenodd" d="M43.1458 216.801C69.2716 235.22 105.383 246.624 145.289 246.624C185.194 246.624 221.305 235.22 247.431 216.801C273.558 198.382 289.672 172.971 289.672 144.942C289.672 116.914 273.558 91.5024 247.431 73.0832C221.305 54.6646 185.194 43.2609 145.289 43.2609C105.383 43.2609 69.2716 54.6646 43.1458 73.0832C17.0191 91.5024 0.905008 116.914 0.905008 144.942C0.905008 172.971 17.0191 198.382 43.1458 216.801ZM42.7223 217.402C16.4595 198.887 0.169922 173.274 0.169922 144.942C0.169922 116.611 16.4595 90.9976 42.7223 72.4824C68.9861 53.9665 105.25 42.5258 145.289 42.5258C185.327 42.5258 221.591 53.9665 247.855 72.4824C274.118 90.9976 290.407 116.611 290.407 144.942C290.407 173.274 274.118 198.887 247.855 217.402C221.591 235.918 185.327 247.359 145.289 247.359C105.25 247.359 68.9861 235.918 42.7223 217.402Z" fill="white"/>
<path fill-rule="evenodd" clip-rule="evenodd" d="M43.1361 201.165C69.2564 215.609 105.37 224.555 145.284 224.555C185.197 224.555 221.311 215.609 247.432 201.165C273.567 186.713 289.608 166.817 289.608 144.941C289.608 123.065 273.567 103.169 247.432 88.7171C221.311 74.2737 185.197 65.3269 145.284 65.3269C105.37 65.3269 69.2564 74.2737 43.1361 88.7171C17.0009 103.169 0.959997 123.065 0.959997 144.941C0.959997 166.817 17.0009 186.713 43.1361 201.165ZM42.7226 201.913C16.4682 187.395 0.105469 167.271 0.105469 144.941C0.105469 122.612 16.4682 102.487 42.7226 87.9693C68.9919 73.4434 105.254 64.4723 145.284 64.4723C185.314 64.4723 221.576 73.4434 247.845 87.9693C274.099 102.487 290.462 122.612 290.462 144.941C290.462 167.271 274.099 187.395 247.845 201.913C221.576 216.439 185.314 225.41 145.284 225.41C105.254 225.41 68.9919 216.439 42.7226 201.913Z" fill="white"/>
<path fill-rule="evenodd" clip-rule="evenodd" d="M43.1086 186.375C69.2324 197.065 105.355 203.687 145.28 203.687C185.205 203.687 221.328 197.065 247.452 186.375C260.515 181.03 271.055 174.677 278.321 167.648C285.585 160.62 289.549 152.947 289.549 144.94C289.549 136.933 285.585 129.26 278.321 122.232C271.055 115.203 260.515 108.85 247.452 103.505C221.328 92.8154 185.205 86.1928 145.28 86.1928C105.355 86.1928 69.2324 92.8154 43.1086 103.505C30.0456 108.85 19.5061 115.203 12.24 122.232C4.97535 129.26 1.01175 136.933 1.01175 144.94C1.01175 152.947 4.97535 160.62 12.24 167.648C19.5061 174.677 30.0456 181.03 43.1086 186.375ZM11.5691 168.342C4.18419 161.197 0.046875 153.289 0.046875 144.94C0.046875 136.591 4.18419 128.683 11.5691 121.538C18.9526 114.395 29.6115 107.985 42.7432 102.612C69.0091 91.8643 105.262 85.2279 145.28 85.2279C185.299 85.2279 221.552 91.8643 247.818 102.612C260.949 107.985 271.608 114.395 278.992 121.538C286.377 128.683 290.514 136.591 290.514 144.94C290.514 153.289 286.377 161.197 278.992 168.342C271.608 175.485 260.949 181.895 247.818 187.268C221.552 198.016 185.299 204.652 145.28 204.652C105.262 204.652 69.0091 198.016 42.7432 187.268C29.6115 181.895 18.9526 175.485 11.5691 168.342Z" fill="white"/>
<path fill-rule="evenodd" clip-rule="evenodd" d="M43.0659 171.168C69.2051 177.997 105.345 182.228 145.285 182.228C185.225 182.228 221.366 177.997 247.505 171.168C260.578 167.752 271.12 163.694 278.38 159.209C285.67 154.705 289.502 149.87 289.502 144.942C289.502 140.014 285.67 135.178 278.38 130.675C271.12 126.19 260.578 122.132 247.505 118.716C221.366 111.886 185.225 107.656 145.285 107.656C105.345 107.656 69.2051 111.886 43.0659 118.716C29.9923 122.132 19.4507 126.19 12.1903 130.675C4.90038 135.178 1.06848 140.014 1.06848 144.942C1.06848 149.87 4.90038 154.705 12.1903 159.209C19.4507 163.694 29.9923 167.752 43.0659 171.168ZM11.6287 160.118C4.26901 155.571 0 150.458 0 144.942C0 139.426 4.26901 134.312 11.6287 129.766C19.0179 125.202 29.6746 121.11 42.7958 117.682C69.0462 110.824 105.281 106.588 145.285 106.588C185.289 106.588 221.524 110.824 247.775 117.682C260.896 121.11 271.553 125.202 278.942 129.766C286.302 134.312 290.571 139.426 290.571 144.942C290.571 150.458 286.302 155.571 278.942 160.118C271.553 164.682 260.896 168.773 247.775 172.202C221.524 179.06 185.289 183.296 145.285 183.296C105.281 183.296 69.0462 179.06 42.7958 172.202C29.6746 168.773 19.0179 164.682 11.6287 160.118Z" fill="white"/>
<path fill-rule="evenodd" clip-rule="evenodd" d="M42.9726 153.028C69.1495 155.224 105.323 156.583 145.285 156.583C185.248 156.583 221.421 155.224 247.597 153.028C260.689 151.93 271.266 150.623 278.563 149.175C282.216 148.451 285.022 147.696 286.905 146.924C287.848 146.537 288.531 146.157 288.969 145.795C289.413 145.429 289.533 145.142 289.533 144.941C289.533 144.74 289.413 144.454 288.969 144.087C288.531 143.725 287.848 143.346 286.905 142.959C285.022 142.187 282.216 141.431 278.563 140.707C271.266 139.259 260.689 137.953 247.597 136.854C221.421 134.658 185.248 133.299 145.285 133.299C105.323 133.299 69.1495 134.658 42.9726 136.854C29.8815 137.953 19.3042 139.259 12.007 140.707C8.35439 141.431 5.54833 142.187 3.66547 142.959C2.72164 143.346 2.03938 143.725 1.60144 144.087C1.15747 144.454 1.03662 144.74 1.03662 144.941C1.03662 145.142 1.15747 145.429 1.60144 145.795C2.03938 146.157 2.72164 146.537 3.66547 146.924C5.54833 147.696 8.35439 148.451 12.007 149.175C19.3042 150.623 29.8815 151.93 42.9726 153.028ZM0.961101 146.57C0.416708 146.121 0.03125 145.578 0.03125 144.941C0.03125 144.304 0.416708 143.762 0.961101 143.312C1.51152 142.857 2.29968 142.432 3.28406 142.028C5.25762 141.219 8.1392 140.449 11.8114 139.721C19.1637 138.262 29.7848 136.952 42.8885 135.853C69.1012 133.653 105.304 132.294 145.285 132.294C185.266 132.294 221.469 133.653 247.682 135.853C260.785 136.952 271.406 138.262 278.759 139.721C282.431 140.449 285.312 141.219 287.286 142.028C288.27 142.432 289.059 142.857 289.609 143.312C290.153 143.762 290.539 144.304 290.539 144.941C290.539 145.578 290.153 146.121 289.609 146.57C289.059 147.025 288.27 147.45 287.286 147.854C285.312 148.663 282.431 149.433 278.759 150.162C271.406 151.62 260.785 152.93 247.682 154.03C221.469 156.229 185.266 157.589 145.285 157.589C105.304 157.589 69.1012 156.229 42.8885 154.03C29.7848 152.93 19.1637 151.62 11.8114 150.162C8.1392 149.433 5.25762 148.663 3.28406 147.854C2.29968 147.45 1.51152 147.025 0.961101 146.57Z" fill="white"/>
<path fill-rule="evenodd" clip-rule="evenodd" d="M290.97 144.941C290.97 224.78 355.692 289.502 435.531 289.502C515.37 289.502 580.092 224.78 580.092 144.941C580.092 65.1025 515.37 0.380432 435.531 0.380432C355.692 0.380432 290.97 65.1025 290.97 144.941ZM435.531 289.883C355.482 289.883 290.59 224.99 290.59 144.941C290.59 64.8924 355.482 -3.05176e-05 435.531 -3.05176e-05C515.58 -3.05176e-05 580.472 64.8924 580.472 144.941C580.472 224.99 515.58 289.883 435.531 289.883Z" fill="white"/>
<path fill-rule="evenodd" clip-rule="evenodd" d="M291.072 144.942C291.072 213.854 355.706 269.787 435.529 269.787C515.352 269.787 579.987 213.854 579.987 144.942C579.987 76.0308 515.352 20.0971 435.529 20.0971C355.706 20.0971 291.072 76.0308 291.072 144.942ZM435.529 270.375C355.465 270.375 290.484 214.255 290.484 144.942C290.484 75.6291 355.465 19.5097 435.529 19.5097C515.594 19.5097 580.574 75.6291 580.574 144.942C580.574 214.255 515.594 270.375 435.529 270.375Z" fill="white"/>
<path fill-rule="evenodd" clip-rule="evenodd" d="M333.394 216.801C359.52 235.22 395.631 246.624 435.537 246.624C475.442 246.624 511.554 235.22 537.679 216.801C563.806 198.382 579.92 172.971 579.92 144.942C579.92 116.914 563.806 91.5024 537.679 73.0832C511.554 54.6646 475.442 43.2609 435.537 43.2609C395.631 43.2609 359.52 54.6646 333.394 73.0832C307.267 91.5024 291.153 116.914 291.153 144.942C291.153 172.971 307.267 198.382 333.394 216.801ZM332.97 217.402C306.708 198.887 290.418 173.274 290.418 144.942C290.418 116.611 306.708 90.9976 332.97 72.4824C359.234 53.9665 395.498 42.5258 435.537 42.5258C475.575 42.5258 511.839 53.9665 538.103 72.4824C564.366 90.9976 580.655 116.611 580.655 144.942C580.655 173.274 564.366 198.887 538.103 217.402C511.839 235.918 475.575 247.359 435.537 247.359C395.498 247.359 359.234 235.918 332.97 217.402Z" fill="white"/>
<path fill-rule="evenodd" clip-rule="evenodd" d="M333.384 201.165C359.504 215.609 395.618 224.555 435.532 224.555C475.445 224.555 511.559 215.609 537.68 201.165C563.815 186.713 579.856 166.817 579.856 144.941C579.856 123.065 563.815 103.169 537.68 88.7171C511.559 74.2737 475.445 65.3269 435.532 65.3269C395.618 65.3269 359.504 74.2737 333.384 88.7171C307.249 103.169 291.208 123.065 291.208 144.941C291.208 166.817 307.249 186.713 333.384 201.165ZM332.971 201.913C306.716 187.395 290.354 167.271 290.354 144.941C290.354 122.612 306.716 102.487 332.971 87.9693C359.24 73.4434 395.502 64.4723 435.532 64.4723C475.562 64.4723 511.824 73.4434 538.093 87.9693C564.348 102.487 580.71 122.612 580.71 144.941C580.71 167.271 564.348 187.395 538.093 201.913C511.824 216.439 475.562 225.41 435.532 225.41C395.502 225.41 359.24 216.439 332.971 201.913Z" fill="white"/>
<path fill-rule="evenodd" clip-rule="evenodd" d="M333.357 186.375C359.48 197.065 395.603 203.687 435.528 203.687C475.454 203.687 511.576 197.065 537.7 186.375C550.763 181.03 561.303 174.677 568.569 167.648C575.834 160.62 579.797 152.947 579.797 144.94C579.797 136.933 575.834 129.26 568.569 122.232C561.303 115.203 550.763 108.85 537.7 103.505C511.576 92.8154 475.454 86.1928 435.528 86.1928C395.603 86.1928 359.48 92.8154 333.357 103.505C320.294 108.85 309.754 115.203 302.488 122.232C295.223 129.26 291.26 136.933 291.26 144.94C291.26 152.947 295.223 160.62 302.488 167.648C309.754 174.677 320.294 181.03 333.357 186.375ZM301.817 168.342C294.432 161.197 290.295 153.289 290.295 144.94C290.295 136.591 294.432 128.683 301.817 121.538C309.201 114.395 319.86 107.985 332.991 102.612C359.257 91.8643 395.51 85.2279 435.528 85.2279C475.547 85.2279 511.8 91.8643 538.066 102.612C551.197 107.985 561.856 114.395 569.24 121.538C576.625 128.683 580.762 136.591 580.762 144.94C580.762 153.289 576.625 161.197 569.24 168.342C561.856 175.485 551.197 181.895 538.066 187.268C511.8 198.016 475.547 204.652 435.528 204.652C395.51 204.652 359.257 198.016 332.991 187.268C319.86 181.895 309.201 175.485 301.817 168.342Z" fill="white"/>
<path fill-rule="evenodd" clip-rule="evenodd" d="M333.314 171.168C359.453 177.997 395.593 182.228 435.533 182.228C475.473 182.228 511.614 177.997 537.753 171.168C550.826 167.752 561.368 163.694 568.628 159.209C575.918 154.705 579.75 149.87 579.75 144.942C579.75 140.014 575.918 135.178 568.628 130.675C561.368 126.19 550.826 122.132 537.753 118.716C511.614 111.886 475.473 107.656 435.533 107.656C395.593 107.656 359.453 111.886 333.314 118.716C320.24 122.132 309.699 126.19 302.438 130.675C295.148 135.178 291.317 140.014 291.317 144.942C291.317 149.87 295.148 154.705 302.438 159.209C309.699 163.694 320.24 167.752 333.314 171.168ZM301.877 160.118C294.517 155.571 290.248 150.458 290.248 144.942C290.248 139.426 294.517 134.312 301.877 129.766C309.266 125.202 319.923 121.11 333.044 117.682C359.294 110.824 395.529 106.588 435.533 106.588C475.537 106.588 511.773 110.824 538.023 117.682C551.144 121.11 561.801 125.202 569.19 129.766C576.55 134.312 580.819 139.426 580.819 144.942C580.819 150.458 576.55 155.571 569.19 160.118C561.801 164.682 551.144 168.773 538.023 172.202C511.773 179.06 475.537 183.296 435.533 183.296C395.529 183.296 359.294 179.06 333.044 172.202C319.923 168.773 309.266 164.682 301.877 160.118Z" fill="white"/>
<path fill-rule="evenodd" clip-rule="evenodd" d="M333.221 153.028C359.397 155.224 395.571 156.583 435.533 156.583C475.496 156.583 511.669 155.224 537.846 153.028C550.937 151.93 561.514 150.623 568.811 149.175C572.464 148.451 575.27 147.696 577.153 146.924C578.096 146.537 578.779 146.157 579.217 145.795C579.661 145.429 579.781 145.142 579.781 144.941C579.781 144.74 579.661 144.454 579.217 144.087C578.779 143.725 578.096 143.346 577.153 142.959C575.27 142.187 572.464 141.431 568.811 140.707C561.514 139.259 550.937 137.953 537.846 136.854C511.669 134.658 475.496 133.299 435.533 133.299C395.571 133.299 359.397 134.658 333.221 136.854C320.13 137.953 309.552 139.259 302.255 140.707C298.602 141.431 295.796 142.187 293.914 142.959C292.97 143.346 292.287 143.725 291.849 144.087C291.406 144.454 291.285 144.74 291.285 144.941C291.285 145.142 291.406 145.429 291.849 145.795C292.287 146.157 292.97 146.537 293.914 146.924C295.796 147.696 298.602 148.451 302.255 149.175C309.552 150.623 320.13 151.93 333.221 153.028ZM291.209 146.57C290.665 146.121 290.279 145.578 290.279 144.941C290.279 144.304 290.665 143.762 291.209 143.312C291.76 142.857 292.548 142.432 293.532 142.028C295.506 141.219 298.387 140.449 302.059 139.721C309.412 138.262 320.033 136.952 333.137 135.853C359.349 133.653 395.552 132.294 435.533 132.294C475.514 132.294 511.717 133.653 537.93 135.853C551.033 136.952 561.654 138.262 569.007 139.721C572.679 140.449 575.56 141.219 577.534 142.028C578.518 142.432 579.307 142.857 579.857 143.312C580.401 143.762 580.787 144.304 580.787 144.941C580.787 145.578 580.401 146.121 579.857 146.57C579.307 147.025 578.518 147.45 577.534 147.854C575.56 148.663 572.679 149.433 569.007 150.162C561.654 151.62 551.033 152.93 537.93 154.03C511.717 156.229 475.514 157.589 435.533 157.589C395.552 157.589 359.349 156.229 333.137 154.03C320.033 152.93 309.412 151.62 302.059 150.162C298.387 149.433 295.506 148.663 293.532 147.854C292.548 147.45 291.76 147.025 291.209 146.57Z" fill="white"/>
</svg>
