<svg width="275" height="457" viewBox="0 0 275 457" fill="none" xmlns="http://www.w3.org/2000/svg">
<path fill-rule="evenodd" clip-rule="evenodd" d="M137.09 182.657C61.8174 182.657 0.796824 243.678 0.796824 318.951C0.796824 394.223 61.8174 455.244 137.09 455.244C212.363 455.244 273.383 394.223 273.383 318.951C273.383 243.678 212.363 182.657 137.09 182.657ZM0 318.951C0 243.238 61.3773 181.861 137.09 181.861C212.803 181.861 274.18 243.238 274.18 318.951C274.18 394.664 212.803 456.041 137.09 456.041C61.3773 456.041 0 394.664 0 318.951Z" fill="white"/>
<path fill-rule="evenodd" clip-rule="evenodd" d="M137.094 182.709C67.3005 182.709 10.722 239.287 10.722 309.08C10.722 378.874 67.3005 435.452 137.094 435.452C206.887 435.452 263.465 378.874 263.465 309.08C263.465 239.287 206.887 182.709 137.094 182.709ZM9.82227 309.08C9.82227 238.79 66.8036 181.809 137.094 181.809C207.384 181.809 264.365 238.79 264.365 309.08C264.365 379.371 207.384 436.352 137.094 436.352C66.8036 436.352 9.82227 379.371 9.82227 309.08Z" fill="white"/>
<path fill-rule="evenodd" clip-rule="evenodd" d="M137.089 182.709C72.7467 182.709 20.5872 234.868 20.5872 299.21C20.5872 363.552 72.7467 415.712 137.089 415.712C201.431 415.712 253.59 363.552 253.59 299.21C253.59 234.868 201.431 182.709 137.089 182.709ZM19.6875 299.21C19.6875 234.371 72.2498 181.809 137.089 181.809C201.928 181.809 254.49 234.371 254.49 299.21C254.49 364.049 201.928 416.611 137.089 416.611C72.2498 416.611 19.6875 364.049 19.6875 299.21Z" fill="white"/>
<path fill-rule="evenodd" clip-rule="evenodd" d="M137.09 182.757C78.7073 182.757 31.3791 230.085 31.3791 288.468C31.3791 346.85 78.7073 394.178 137.09 394.178C195.472 394.178 242.8 346.85 242.8 288.468C242.8 230.085 195.472 182.757 137.09 182.757ZM30.3828 288.468C30.3828 229.535 78.157 181.761 137.09 181.761C196.022 181.761 243.796 229.535 243.796 288.468C243.796 347.4 196.022 395.174 137.09 395.174C78.157 395.174 30.3828 347.4 30.3828 288.468Z" fill="white"/>
<path fill-rule="evenodd" clip-rule="evenodd" d="M137.091 182.757C84.178 182.757 41.2834 225.652 41.2834 278.565C41.2834 331.478 84.178 374.373 137.091 374.373C190.004 374.373 232.899 331.478 232.899 278.565C232.899 225.652 190.004 182.757 137.091 182.757ZM40.2871 278.565C40.2871 225.102 83.6277 181.761 137.091 181.761C190.554 181.761 233.895 225.102 233.895 278.565C233.895 332.028 190.554 375.369 137.091 375.369C83.6277 375.369 40.2871 332.028 40.2871 278.565Z" fill="white"/>
<path fill-rule="evenodd" clip-rule="evenodd" d="M137.091 182.757C89.9609 182.757 51.7541 220.964 51.7541 268.094C51.7541 315.225 89.9608 353.431 137.091 353.431C184.222 353.431 222.428 315.225 222.428 268.094C222.428 220.964 184.222 182.757 137.091 182.757ZM50.7578 268.094C50.7578 220.414 89.4106 181.761 137.091 181.761C184.772 181.761 223.425 220.414 223.425 268.094C223.425 315.775 184.772 354.428 137.091 354.428C89.4106 354.428 50.7578 315.775 50.7578 268.094Z" fill="white"/>
<path fill-rule="evenodd" clip-rule="evenodd" d="M137.092 182.769C95.3309 182.769 61.4768 216.624 61.4768 258.385C61.4768 300.146 95.3309 334 137.092 334C178.853 334 212.707 300.146 212.707 258.385C212.707 216.624 178.853 182.769 137.092 182.769ZM60.457 258.385C60.457 216.06 94.7677 181.75 137.092 181.75C179.417 181.75 213.727 216.06 213.727 258.385C213.727 300.709 179.417 335.02 137.092 335.02C94.7677 335.02 60.457 300.709 60.457 258.385Z" fill="white"/>
<path fill-rule="evenodd" clip-rule="evenodd" d="M137.091 182.939C100.576 182.939 70.9749 212.54 70.9749 249.055C70.9749 285.57 100.576 315.171 137.091 315.171C173.606 315.171 203.207 285.57 203.207 249.055C203.207 212.54 173.606 182.939 137.091 182.939ZM69.6152 249.055C69.6152 211.789 99.8252 181.579 137.091 181.579C174.357 181.579 204.567 211.789 204.567 249.055C204.567 286.321 174.357 316.531 137.091 316.531C99.8252 316.531 69.6152 286.321 69.6152 249.055Z" fill="white"/>
<path fill-rule="evenodd" clip-rule="evenodd" d="M137.089 182.939C106.251 182.939 81.2522 207.938 81.2522 238.775C81.2522 269.613 106.251 294.612 137.089 294.612C167.926 294.612 192.925 269.613 192.925 238.775C192.925 207.938 167.926 182.939 137.089 182.939ZM79.8926 238.775C79.8926 207.187 105.5 181.579 137.089 181.579C168.677 181.579 194.285 207.187 194.285 238.775C194.285 270.364 168.677 295.971 137.089 295.971C105.5 295.971 79.8926 270.364 79.8926 238.775Z" fill="white"/>
<path fill-rule="evenodd" clip-rule="evenodd" d="M137.094 183.278C112.383 183.278 92.352 203.31 92.352 228.02C92.352 252.73 112.383 272.762 137.094 272.762C161.804 272.762 181.835 252.73 181.835 228.02C181.835 203.31 161.804 183.278 137.094 183.278ZM90.3125 228.02C90.3125 202.184 111.257 181.239 137.094 181.239C162.93 181.239 183.875 202.184 183.875 228.02C183.875 253.857 162.93 274.801 137.094 274.801C111.257 274.801 90.3125 253.857 90.3125 228.02Z" fill="white"/>
<path fill-rule="evenodd" clip-rule="evenodd" d="M137.09 0.796824C61.8174 0.796824 0.796824 61.8174 0.796824 137.09C0.796824 212.363 61.8174 273.383 137.09 273.383C212.363 273.383 273.383 212.363 273.383 137.09C273.383 61.8174 212.363 0.796824 137.09 0.796824ZM0 137.09C0 61.3773 61.3773 0 137.09 0C212.803 0 274.18 61.3773 274.18 137.09C274.18 212.803 212.803 274.18 137.09 274.18C61.3773 274.18 0 212.803 0 137.09Z" fill="white"/>
<path fill-rule="evenodd" clip-rule="evenodd" d="M137.094 20.5887C67.3005 20.5887 10.722 77.1672 10.722 146.96C10.722 216.753 67.3005 273.332 137.094 273.332C206.887 273.332 263.465 216.753 263.465 146.96C263.465 77.1672 206.887 20.5887 137.094 20.5887ZM9.82227 146.96C9.82227 76.6703 66.8036 19.689 137.094 19.689C207.384 19.689 264.365 76.6703 264.365 146.96C264.365 217.25 207.384 274.232 137.094 274.232C66.8036 274.232 9.82227 217.25 9.82227 146.96Z" fill="white"/>
<path fill-rule="evenodd" clip-rule="evenodd" d="M137.089 40.3297C72.7467 40.3297 20.5872 92.4891 20.5872 156.831C20.5872 221.173 72.7467 273.333 137.089 273.333C201.431 273.333 253.59 221.173 253.59 156.831C253.59 92.4891 201.431 40.3297 137.089 40.3297ZM19.6875 156.831C19.6875 91.9922 72.2498 39.4299 137.089 39.4299C201.928 39.4299 254.49 91.9922 254.49 156.831C254.49 221.67 201.928 274.232 137.089 274.232C72.2498 274.232 19.6875 221.67 19.6875 156.831Z" fill="white"/>
<path fill-rule="evenodd" clip-rule="evenodd" d="M137.09 61.8625C78.7073 61.8625 31.3791 109.191 31.3791 167.573C31.3791 225.955 78.7073 273.283 137.09 273.283C195.472 273.283 242.8 225.955 242.8 167.573C242.8 109.191 195.472 61.8625 137.09 61.8625ZM30.3828 167.573C30.3828 108.64 78.157 60.8662 137.09 60.8662C196.022 60.8662 243.796 108.64 243.796 167.573C243.796 226.505 196.022 274.28 137.09 274.28C78.157 274.28 30.3828 226.505 30.3828 167.573Z" fill="white"/>
<path fill-rule="evenodd" clip-rule="evenodd" d="M137.091 81.6689C84.178 81.6689 41.2834 124.563 41.2834 177.477C41.2834 230.39 84.178 273.284 137.091 273.284C190.004 273.284 232.899 230.39 232.899 177.477C232.899 124.563 190.004 81.6689 137.091 81.6689ZM40.2871 177.477C40.2871 124.013 83.6277 80.6726 137.091 80.6726C190.554 80.6726 233.895 124.013 233.895 177.477C233.895 230.94 190.554 274.281 137.091 274.281C83.6277 274.281 40.2871 230.94 40.2871 177.477Z" fill="white"/>
<path fill-rule="evenodd" clip-rule="evenodd" d="M137.091 102.609C89.9609 102.609 51.7541 140.816 51.7541 187.946C51.7541 235.077 89.9608 273.283 137.091 273.283C184.222 273.283 222.428 235.077 222.428 187.946C222.428 140.816 184.222 102.609 137.091 102.609ZM50.7578 187.946C50.7578 140.266 89.4106 101.613 137.091 101.613C184.772 101.613 223.425 140.266 223.425 187.946C223.425 235.627 184.772 274.28 137.091 274.28C89.4106 274.28 50.7578 235.627 50.7578 187.946Z" fill="white"/>
<path fill-rule="evenodd" clip-rule="evenodd" d="M137.092 122.041C95.3309 122.041 61.4768 155.895 61.4768 197.657C61.4768 239.418 95.3309 273.272 137.092 273.272C178.853 273.272 212.707 239.418 212.707 197.657C212.707 155.895 178.853 122.041 137.092 122.041ZM60.457 197.657C60.457 155.332 94.7677 121.021 137.092 121.021C179.417 121.021 213.727 155.332 213.727 197.657C213.727 239.981 179.417 274.292 137.092 274.292C94.7677 274.292 60.457 239.981 60.457 197.657Z" fill="white"/>
<path fill-rule="evenodd" clip-rule="evenodd" d="M137.091 140.87C100.576 140.87 70.9749 170.471 70.9749 206.986C70.9749 243.501 100.576 273.102 137.091 273.102C173.606 273.102 203.207 243.501 203.207 206.986C203.207 170.471 173.606 140.87 137.091 140.87ZM69.6152 206.986C69.6152 169.72 99.8252 139.51 137.091 139.51C174.357 139.51 204.567 169.72 204.567 206.986C204.567 244.252 174.357 274.462 137.091 274.462C99.8252 274.462 69.6152 244.252 69.6152 206.986Z" fill="white"/>
<path fill-rule="evenodd" clip-rule="evenodd" d="M137.089 161.428C106.251 161.428 81.2522 186.427 81.2522 217.265C81.2522 248.103 106.251 273.101 137.089 273.101C167.926 273.101 192.925 248.103 192.925 217.265C192.925 186.427 167.926 161.428 137.089 161.428ZM79.8926 217.265C79.8926 185.676 105.5 160.069 137.089 160.069C168.677 160.069 194.285 185.676 194.285 217.265C194.285 248.853 168.677 274.461 137.089 274.461C105.5 274.461 79.8926 248.853 79.8926 217.265Z" fill="white"/>
<path fill-rule="evenodd" clip-rule="evenodd" d="M137.094 183.278C112.383 183.278 92.352 203.31 92.352 228.02C92.352 252.73 112.383 272.762 137.094 272.762C161.804 272.762 181.835 252.73 181.835 228.02C181.835 203.31 161.804 183.278 137.094 183.278ZM90.3125 228.02C90.3125 202.184 111.257 181.239 137.094 181.239C162.93 181.239 183.875 202.184 183.875 228.02C183.875 253.857 162.93 274.801 137.094 274.801C111.257 274.801 90.3125 253.857 90.3125 228.02Z" fill="white"/>
</svg>
