<svg xmlns="http://www.w3.org/2000/svg" viewBox="0 0 64 64"><defs><linearGradient id="wa" x1="0" y1="0" x2="0" y2="1"><stop offset="0" stop-color="#5BD066"/><stop offset="1" stop-color="#27B43E"/></linearGradient></defs><circle cx="32" cy="32" r="32" fill="url(#wa)"/><path fill="#fff" d="M32.05 13.5c-10.2 0-18.5 8.3-18.5 18.5 0 3.27.86 6.45 2.5 9.27L13.5 50.5l9.45-2.47c2.7 1.46 5.74 2.24 8.83 2.24h.27c10.2 0 18.5-8.3 18.5-18.5 0-4.94-1.92-9.6-5.42-13.1-3.5-3.5-8.16-5.17-13.08-5.17zm10.86 26.45c-.46 1.3-2.66 2.46-3.7 2.62-.94.13-2.13.2-3.43-.22-.78-.25-1.78-.58-3.06-1.13-5.4-2.33-8.93-7.77-9.2-8.13-.27-.36-2.2-2.93-2.2-5.6 0-2.66 1.4-3.97 1.9-4.5.5-.55 1.08-.68 1.45-.68.36 0 .73 0 1.05.02.34 0 .8-.13 1.24.95.46 1.13 1.55 3.8 1.7 4.07.13.27.22.6.04.95-.18.36-.27.58-.55.9-.27.32-.57.7-.82.95-.27.27-.55.56-.24 1.1.32.55 1.4 2.32 3.02 3.76 2.07 1.85 3.83 2.42 4.36 2.7.55.27.86.22 1.18-.13.32-.36 1.35-1.58 1.72-2.13.36-.55.73-.46 1.22-.27.5.18 3.18 1.5 3.73 1.77.55.27.9.4 1.04.63.13.22.13 1.3-.32 2.6z"/></svg>
